<svg data-v-423bf9ae="" xmlns="http://www.w3.org/2000/svg" viewBox="0 0 375 90" class="iconLeftSlogan"><!----><!----><defs data-v-423bf9ae=""><linearGradient data-v-423bf9ae="" gradientTransform="rotate(25)" id="10b90b3d-d6c3-413f-b5d4-63e851b2bac1" x1="0%" y1="0%" x2="100%" y2="0%"><stop data-v-423bf9ae="" offset="0%" style="stop-color: rgb(51, 25, 204); stop-opacity: 1;"></stop><stop data-v-423bf9ae="" offset="100%" style="stop-color: rgb(255, 0, 0); stop-opacity: 1;"></stop></linearGradient></defs><g data-v-423bf9ae="" id="070d3d1f-88e1-40c7-b4d7-341b1c821553" fill="url(#10b90b3d-d6c3-413f-b5d4-63e851b2bac1)" transform="matrix(4.264392416587725,0,0,4.264392416587725,171.6468474164446,-11.769723267532285)"><path d="M7.34 5.45L7.34 5.45Q7.27 5.38 7.21 5.18L7.21 5.18L7.21 5.18Q7.20 5.07 7.20 4.83L7.20 4.83L7.20 4.83Q7.20 4.56 7.17 4.37L7.17 4.37L7.17 4.37Q7.14 4.17 7.04 3.98L7.04 3.98L7.04 3.98Q6.92 3.85 6.59 3.85L6.59 3.85L6.59 3.85Q6.31 3.85 5.94 3.92L5.94 3.92L5.94 3.92Q5.49 3.98 5.31 3.98L5.31 3.98L5.31 3.98Q5.18 4.23 5.18 4.65L5.18 4.65L5.18 4.65Q5.18 4.98 5.25 5.40L5.25 5.40L5.25 5.40Q5.31 5.85 5.31 6.03L5.31 6.03L5.31 11.55L5.31 13.90L5.31 14.49L5.31 14.49Q5.31 14.80 5.26 15.06L5.26 15.06L5.26 15.06Q5.24 15.37 5.24 15.53L5.24 15.53L5.24 15.53Q5.24 15.79 5.31 15.95L5.31 15.95L5.31 15.95Q5.33 16.02 5.42 16.04L5.42 16.04L5.42 16.04Q5.50 16.07 5.57 16.09L5.57 16.09L5.57 16.09Q5.63 16.10 5.66 16.10L5.66 16.10L5.66 16.10Q5.89 16.13 6.03 16.21L6.03 16.21L6.03 16.21Q6.17 16.28 6.17 16.52L6.17 16.52L6.17 16.52Q6.15 16.55 6.06 16.62L6.06 16.62L6.06 16.62Q5.98 16.69 5.84 16.75L5.84 16.75L5.84 16.75Q5.71 16.81 5.59 16.81L5.59 16.81L2.95 16.81L2.95 16.81Q2.76 16.81 2.71 16.67L2.71 16.67L2.71 16.67Q2.66 16.52 2.66 16.23L2.66 16.23L2.66 16.23Q2.81 16.23 3.09 16.09L3.09 16.09L3.09 16.09Q3.37 15.95 3.53 15.95L3.53 15.95L3.54 13.50L3.54 13.50Q3.54 12.74 3.53 12.43L3.53 12.43L3.53 12.43Q3.51 12.03 3.51 11.26L3.51 11.26L3.53 8.95L3.53 7.49L3.53 6.90L3.53 6.90Q3.53 5.81 3.48 5.19L3.48 5.19L3.48 5.19Q3.43 4.58 3.23 3.98L3.23 3.98L3.23 3.98Q2.90 3.88 2.51 3.88L2.51 3.88L2.44 3.88L2.44 3.88Q1.75 3.88 1.31 4.18L1.31 4.18L1.31 4.18Q0.87 4.48 0.87 5.10L0.87 5.10L0.87 5.10Q0.87 5.25 0.91 5.45L0.91 5.45L0.91 5.45Q0.90 5.47 0.81 5.52L0.81 5.52L0.81 5.52Q0.71 5.57 0.62 5.57L0.62 5.57L0.62 5.57Q0.46 5.57 0.34 5.45L0.34 5.45L0.34 5.45Q0.34 5.28 0.28 4.83L0.28 4.83L0.28 4.83Q0.21 4.20 0.21 4.06L0.21 4.06L0.21 4.06Q0.21 3.64 0.34 3.39L0.34 3.39L0.34 3.39Q0.83 3.14 1.27 3.01L1.27 3.01L1.27 3.01Q1.72 2.88 2.32 2.88L2.32 2.88L2.32 2.88Q2.76 2.88 3.77 2.86L3.77 2.86L3.77 2.86Q4.56 2.81 5.31 2.81L5.31 2.81L5.31 2.81Q6.34 2.81 7.04 2.91L7.04 2.91L7.04 2.91Q7.73 3.01 7.91 3.39L7.91 3.39L7.91 3.39Q8.09 3.91 8.09 4.40L8.09 4.40L8.09 4.40Q8.09 4.86 7.91 5.15L7.91 5.15L7.91 5.15Q7.73 5.45 7.34 5.45L7.34 5.45ZM13.17 3.37L13.17 3.37Q13.17 3.29 13.23 3.18L13.23 3.18L13.23 3.18Q13.29 3.07 13.48 3.07L13.48 3.07L13.48 3.07Q13.78 3.07 13.92 3.12L13.92 3.12L13.92 3.12Q14.06 3.16 14.06 3.37L14.06 3.37L14.06 3.37Q14.20 3.51 14.20 3.74L14.20 3.74L14.20 3.74Q14.20 3.91 14.11 4.21L14.11 4.21L14.11 4.21Q14.06 4.47 14.06 4.54L14.06 4.54L14.06 4.54Q14.01 4.63 13.85 5.01L13.85 5.01L13.85 5.01Q13.69 5.38 13.50 5.59L13.50 5.59L13.50 5.59Q13.31 5.80 13.10 5.80L13.10 5.80L13.10 5.80Q12.98 5.80 12.87 5.74L12.87 5.74L12.87 5.74Q12.74 5.61 12.74 5.36L12.74 5.36L12.74 5.36Q12.74 5.24 12.80 4.87L12.80 4.87L12.80 4.87Q12.87 4.38 12.87 4.26L12.87 4.26L12.87 4.26Q12.64 4.02 12.22 3.84L12.22 3.84L12.22 3.84Q11.80 3.65 11.38 3.65L11.38 3.65L11.38 3.65Q11.16 4.09 11.16 5.00L11.16 5.00L11.16 5.00Q11.16 5.91 11.38 6.36L11.38 6.36L11.38 6.36Q11.56 6.73 11.89 7.02L11.89 7.02L11.89 7.02Q12.22 7.31 12.80 7.70L12.80 7.70L12.80 7.70Q13.43 8.13 13.82 8.48L13.82 8.48L13.82 8.48Q14.21 8.82 14.49 9.31L14.49 9.31L14.49 9.31Q14.84 9.91 15.06 10.37L15.06 10.37L15.06 10.37Q15.29 10.81 15.40 11.33L15.40 11.33L15.40 11.33Q15.51 11.84 15.51 12.33L15.51 12.33L15.51 12.33Q15.51 13.17 15.38 13.76L15.38 13.76L15.38 13.76Q15.25 14.34 14.95 14.99L14.95 14.99L14.95 14.99Q14.62 15.72 14.06 16.14L14.06 16.14L14.06 16.14Q13.50 16.55 12.59 16.77L12.59 16.77L11.38 16.77L11.38 16.77Q11.00 16.77 10.48 16.37L10.48 16.37L10.48 16.37Q9.95 15.96 9.60 15.58L9.60 15.58L9.60 15.58Q9.17 14.77 9.17 13.87L9.17 13.87L9.17 13.87Q9.17 13.44 9.30 12.91L9.30 12.91L9.30 12.91Q9.14 12.91 8.99 13.06L8.99 13.06L8.99 13.06Q8.86 13.22 8.71 13.22L8.71 13.22L8.71 13.22Q8.50 13.01 8.45 12.80L8.45 12.80L8.45 12.80Q8.40 12.60 8.40 12.32L8.40 12.32L8.40 12.32Q8.88 12.15 9.51 12.05L9.51 12.05L9.51 12.05Q9.81 12.00 10.15 11.91L10.15 11.91L10.15 11.91Q10.49 11.83 10.79 11.70L10.79 11.70L10.79 11.70Q11.12 11.70 11.31 11.91L11.31 11.91L11.31 11.91Q11.51 12.12 11.51 12.43L11.51 12.43L11.51 12.43Q11.51 12.67 11.38 12.91L11.38 12.91L11.38 12.91Q11.09 12.91 10.89 12.96L10.89 12.96L10.89 12.96Q10.70 13.01 10.49 13.22L10.49 13.22L10.49 13.22Q10.18 13.52 10.18 14.17L10.18 14.17L10.18 14.17Q10.18 14.73 10.42 15.24L10.42 15.24L10.42 15.24Q10.67 15.75 11.07 15.89L11.07 15.89L11.07 15.89Q11.26 15.89 11.38 15.74L11.38 15.74L11.38 15.74Q11.40 15.72 11.48 15.65L11.48 15.65L11.48 15.65Q11.56 15.58 11.69 15.58L11.69 15.58L11.69 15.58Q12.67 15.09 13.18 14.05L13.18 14.05L13.18 14.05Q13.69 13.01 13.69 11.68L13.69 11.68L13.69 11.68Q13.69 10.81 13.48 9.93L13.48 9.93L13.48 9.93Q13.24 9.48 12.98 9.22L12.98 9.22L12.98 9.22Q12.73 8.96 12.28 8.72L12.28 8.72L12.28 8.72Q11.87 8.53 11.62 8.32L11.62 8.32L11.62 8.32Q11.37 8.12 11.07 7.83L11.07 7.83L11.07 7.83Q10.93 7.69 10.70 7.55L10.70 7.55L10.70 7.55Q10.33 7.34 10.08 7.07L10.08 7.07L10.08 7.07Q10.00 6.97 9.67 6.65L9.67 6.65L9.67 6.65Q9.35 6.33 9.17 6.03L9.17 6.03L9.17 6.03Q8.99 5.73 8.99 5.46L8.99 5.46L8.99 5.46Q8.92 5.25 8.92 4.97L8.92 4.97L8.92 4.97Q8.92 4.03 9.88 3.07L9.88 3.07L9.88 3.07Q10.00 3.07 10.12 3.02L10.12 3.02L10.12 3.02Q10.25 2.97 10.29 2.95L10.29 2.95L10.29 2.95Q10.68 2.76 11.07 2.76L11.07 2.76L11.07 2.76Q11.34 2.76 11.52 2.79L11.52 2.79L11.52 2.79Q11.70 2.83 11.97 2.91L11.97 2.91L12.59 3.07L12.59 3.07Q12.61 3.09 12.70 3.16L12.70 3.16L12.70 3.16Q12.78 3.23 12.91 3.30L12.91 3.30L12.91 3.30Q13.03 3.37 13.17 3.37L13.17 3.37ZM22.86 5.45L22.86 5.45Q22.79 5.38 22.74 5.18L22.74 5.18L22.74 5.18Q22.72 5.07 22.72 4.83L22.72 4.83L22.72 4.83Q22.72 4.56 22.69 4.37L22.69 4.37L22.69 4.37Q22.67 4.17 22.57 3.98L22.57 3.98L22.57 3.98Q22.44 3.85 22.12 3.85L22.12 3.85L22.12 3.85Q21.84 3.85 21.46 3.92L21.46 3.92L21.46 3.92Q21.01 3.98 20.83 3.98L20.83 3.98L20.83 3.98Q20.71 4.23 20.71 4.65L20.71 4.65L20.71 4.65Q20.71 4.98 20.78 5.40L20.78 5.40L20.78 5.40Q20.83 5.85 20.83 6.03L20.83 6.03L20.83 11.55L20.83 13.90L20.83 14.49L20.83 14.49Q20.83 14.80 20.79 15.06L20.79 15.06L20.79 15.06Q20.76 15.37 20.76 15.53L20.76 15.53L20.76 15.53Q20.76 15.79 20.83 15.95L20.83 15.95L20.83 15.95Q20.86 16.02 20.94 16.04L20.94 16.04L20.94 16.04Q21.03 16.07 21.09 16.09L21.09 16.09L21.09 16.09Q21.15 16.10 21.18 16.10L21.18 16.10L21.18 16.10Q21.42 16.13 21.56 16.21L21.56 16.21L21.56 16.21Q21.70 16.28 21.70 16.52L21.70 16.52L21.70 16.52Q21.67 16.55 21.59 16.62L21.59 16.62L21.59 16.62Q21.50 16.69 21.37 16.75L21.37 16.75L21.37 16.75Q21.24 16.81 21.11 16.81L21.11 16.81L18.48 16.81L18.48 16.81Q18.28 16.81 18.23 16.67L18.23 16.67L18.23 16.67Q18.19 16.52 18.19 16.23L18.19 16.23L18.19 16.23Q18.34 16.23 18.62 16.09L18.62 16.09L18.62 16.09Q18.90 15.95 19.05 15.95L19.05 15.95L19.07 13.50L19.07 13.50Q19.07 12.74 19.05 12.43L19.05 12.43L19.05 12.43Q19.04 12.03 19.04 11.26L19.04 11.26L19.05 8.95L19.05 7.49L19.05 6.90L19.05 6.90Q19.05 5.81 19.00 5.19L19.00 5.19L19.00 5.19Q18.96 4.58 18.76 3.98L18.76 3.98L18.76 3.98Q18.42 3.88 18.03 3.88L18.03 3.88L17.96 3.88L17.96 3.88Q17.28 3.88 16.84 4.18L16.84 4.18L16.84 4.18Q16.39 4.48 16.39 5.10L16.39 5.10L16.39 5.10Q16.39 5.25 16.44 5.45L16.44 5.45L16.44 5.45Q16.42 5.47 16.33 5.52L16.33 5.52L16.33 5.52Q16.24 5.57 16.14 5.57L16.14 5.57L16.14 5.57Q15.99 5.57 15.86 5.45L15.86 5.45L15.86 5.45Q15.86 5.28 15.81 4.83L15.81 4.83L15.81 4.83Q15.74 4.20 15.74 4.06L15.74 4.06L15.74 4.06Q15.74 3.64 15.86 3.39L15.86 3.39L15.86 3.39Q16.35 3.14 16.80 3.01L16.80 3.01L16.80 3.01Q17.25 2.88 17.85 2.88L17.85 2.88L17.85 2.88Q18.28 2.88 19.29 2.86L19.29 2.86L19.29 2.86Q20.09 2.81 20.83 2.81L20.83 2.81L20.83 2.81Q21.87 2.81 22.56 2.91L22.56 2.91L22.56 2.91Q23.25 3.01 23.44 3.39L23.44 3.39L23.44 3.39Q23.62 3.91 23.62 4.40L23.62 4.40L23.62 4.40Q23.62 4.86 23.44 5.15L23.44 5.15L23.44 5.15Q23.25 5.45 22.86 5.45L22.86 5.45ZM30.41 15.46L30.41 15.46Q30.27 15.71 30.04 15.95L30.04 15.95L30.04 15.95Q29.82 16.18 29.62 16.31L29.62 16.31L29.62 16.31Q28.81 16.83 27.90 16.83L27.90 16.83L27.90 16.83Q26.99 16.83 26.21 16.34L26.21 16.34L26.21 16.34Q25.44 15.86 25.06 15.16L25.06 15.16L25.06 15.16Q24.54 14.18 24.19 13.15L24.19 13.15L24.19 13.15Q24.01 12.40 23.96 11.64L23.96 11.64L23.96 11.64Q23.91 10.88 23.91 9.73L23.91 9.73L23.91 9.73Q23.91 9.55 23.88 9.21L23.88 9.21L23.88 9.21Q23.86 8.85 23.86 8.67L23.86 8.67L23.86 8.67Q23.86 8.34 23.91 8.01L23.91 8.01L23.91 8.01Q23.93 7.92 24.00 7.55L24.00 7.55L24.00 7.55Q24.07 7.17 24.07 6.92L24.07 6.92L24.07 6.92Q24.09 6.78 24.16 6.38L24.16 6.38L24.16 6.38Q24.22 6.01 24.28 5.78L24.28 5.78L24.28 5.78Q24.35 5.56 24.49 5.43L24.49 5.43L24.49 5.43Q24.64 5.22 24.95 4.75L24.95 4.75L24.95 4.75Q25.37 4.10 25.67 3.74L25.67 3.74L25.67 3.74Q25.97 3.37 26.42 3.11L26.42 3.11L26.42 3.11Q26.88 2.84 27.50 2.84L27.50 2.84L27.50 2.84Q27.78 2.84 27.93 2.87L27.93 2.87L27.93 2.87Q28.77 2.87 29.27 3.12L29.27 3.12L29.27 3.12Q29.76 3.37 30.20 4.02L30.20 4.02L30.20 4.02Q30.86 4.45 31.31 5.36L31.31 5.36L31.31 5.36Q31.77 6.27 31.86 7.36L31.86 7.36L31.86 7.36Q31.92 7.94 31.92 8.88L31.92 8.88L31.92 9.49L31.92 9.49Q31.92 10.92 31.68 11.91L31.68 11.91L31.68 11.91Q31.26 13.90 30.41 15.46L30.41 15.46ZM29.16 15.26L29.16 15.26Q29.34 14.80 29.57 14.08L29.57 14.08L29.57 14.08Q29.81 13.37 29.92 12.88L29.92 12.88L29.92 12.88Q30.10 12.31 30.15 11.73L30.15 11.73L30.15 11.73Q30.20 11.16 30.20 10.30L30.20 10.30L30.20 10.30Q30.20 10.01 30.25 9.56L30.25 9.56L30.25 9.56Q30.25 9.48 30.27 9.26L30.27 9.26L30.27 9.26Q30.30 9.04 30.30 8.85L30.30 8.85L30.30 8.85Q30.30 8.65 30.28 8.39L30.28 8.39L30.28 8.39Q30.27 8.13 30.25 7.99L30.25 7.99L30.25 7.99Q30.20 7.43 30.20 7.15L30.20 7.15L30.20 7.15Q30.06 6.87 29.92 6.31L29.92 6.31L29.92 6.31Q29.78 5.73 29.62 5.43L29.62 5.43L29.47 5.10L29.47 5.10Q29.22 4.55 29.02 4.24L29.02 4.24L29.02 4.24Q28.83 3.93 28.52 3.78L28.52 3.78L28.52 3.78Q28.24 3.78 27.96 3.75L27.96 3.75L27.96 3.75Q27.65 3.72 27.36 3.72L27.36 3.72L27.36 3.72Q26.94 4.14 26.68 4.60L26.68 4.60L26.68 4.60Q26.43 5.05 26.21 5.71L26.21 5.71L26.21 5.71Q26.01 6.09 25.96 6.48L25.96 6.48L25.96 6.48Q25.91 6.86 25.91 7.43L25.91 7.43L25.91 7.43Q25.80 8.33 25.80 9.42L25.80 9.42L25.80 9.42Q25.80 11.40 26.21 13.72L26.21 13.72L26.21 13.72Q26.31 13.92 26.37 14.14L26.37 14.14L26.37 14.14Q26.43 14.36 26.46 14.43L26.46 14.43L26.46 14.43Q26.54 14.73 26.61 14.89L26.61 14.89L26.61 14.89Q26.67 15.05 26.78 15.16L26.78 15.16L26.78 15.16Q26.89 15.16 26.93 15.20L26.93 15.20L26.93 15.20Q26.96 15.25 26.99 15.39L26.99 15.39L26.99 15.39Q27.02 15.53 27.10 15.61L27.10 15.61L27.10 15.61Q27.33 15.83 27.83 15.83L27.83 15.83L27.83 15.83Q28.27 15.83 28.66 15.67L28.66 15.67L28.66 15.67Q29.06 15.51 29.16 15.26L29.16 15.26ZM38.36 9.02L38.36 9.02Q38.75 9.52 38.96 10.26L38.96 10.26L38.96 10.26Q39.17 11.00 39.26 11.78L39.26 11.78L39.26 11.78Q39.35 12.56 39.42 13.78L39.42 13.78L39.42 13.78Q39.51 15.19 39.59 15.82L39.59 15.82L39.59 15.82Q39.90 15.82 40.04 15.87L40.04 15.87L40.04 15.87Q40.18 15.92 40.18 16.11L40.18 16.11L40.18 16.11Q40.18 16.80 39.17 16.80L39.17 16.80L39.17 16.80Q38.88 16.80 38.09 16.70L38.09 16.70L38.09 16.70Q37.91 16.52 37.87 16.30L37.87 16.30L37.87 16.21L37.87 16.21Q37.87 16.11 37.95 15.72L37.95 15.72L37.95 15.72Q38.00 15.51 38.04 15.23L38.04 15.23L38.04 15.23Q38.09 14.94 38.09 14.63L38.09 14.63L38.09 14.63Q38.09 14.20 38.02 13.83L38.02 13.83L38.02 13.83Q37.95 13.38 37.95 12.70L37.95 12.70L37.95 12.70Q37.93 11.87 37.84 11.36L37.84 11.36L37.84 11.36Q37.76 10.85 37.44 10.40L37.44 10.40L37.27 10.15L37.27 10.15Q37.07 9.83 36.85 9.60L36.85 9.60L36.85 9.60Q36.85 9.48 36.78 9.41L36.78 9.41L36.78 9.41Q36.72 9.34 36.57 9.24L36.57 9.24L36.57 9.24Q36.37 9.13 36.25 9.02L36.25 9.02L36.25 9.02Q35.95 9.02 35.80 9.07L35.80 9.07L35.80 9.07Q35.66 9.11 35.66 9.30L35.66 9.30L35.66 9.30Q35.52 10.01 35.52 10.88L35.52 10.88L35.52 10.88Q35.52 11.48 35.60 12.54L35.60 12.54L35.60 12.54Q35.66 13.47 35.66 13.80L35.66 13.80L35.66 13.80Q35.66 14.42 35.71 14.82L35.71 14.82L35.71 14.82Q35.76 15.22 35.94 15.62L35.94 15.62L35.94 15.62Q35.94 15.72 36.01 15.79L36.01 15.79L36.01 15.79Q36.09 15.85 36.25 15.92L36.25 15.92L36.25 15.92Q36.39 15.99 36.46 16.04L36.46 16.04L36.46 16.04Q36.54 16.10 36.54 16.20L36.54 16.20L36.54 16.20Q36.54 16.25 36.54 16.42L36.54 16.42L36.54 16.42Q36.54 16.59 36.48 16.66L36.48 16.66L36.48 16.66Q36.43 16.73 36.29 16.73L36.29 16.73L36.29 16.73Q36.04 16.73 35.70 16.69L35.70 16.69L35.70 16.69Q35.57 16.69 35.29 16.67L35.29 16.67L35.29 16.67Q35.01 16.65 34.80 16.65L34.80 16.65L34.80 16.65Q34.17 16.65 33.85 16.81L33.85 16.81L33.85 16.81Q33.47 16.81 33.29 16.79L33.29 16.79L33.29 16.79Q33.11 16.76 32.96 16.63L32.96 16.63L32.96 16.63Q32.80 16.49 32.65 16.20L32.65 16.20L32.65 16.20Q32.86 16.02 33.05 15.97L33.05 15.97L33.05 15.97Q33.25 15.92 33.54 15.92L33.54 15.92L33.54 10.81L33.54 10.81Q33.54 10.67 33.57 10.48L33.57 10.48L33.57 10.48Q33.60 10.29 33.61 10.21L33.61 10.21L33.61 10.21Q33.68 9.88 33.68 9.62L33.68 9.62L33.68 9.62Q33.68 9.30 33.54 9.02L33.54 9.02L33.54 9.02Q33.54 8.82 33.59 8.65L33.59 8.65L33.59 8.65Q33.64 8.29 33.64 8.23L33.64 8.23L33.64 8.23Q33.67 7.76 33.67 7.55L33.67 7.55L33.67 7.55Q33.67 7.11 33.61 6.22L33.61 6.22L33.61 6.22Q33.60 6.05 33.57 5.54L33.57 5.54L33.57 5.54Q33.54 5.03 33.54 4.51L33.54 4.51L33.54 4.51Q33.07 4.51 32.76 4.40L32.76 4.40L32.76 4.40Q32.45 4.30 32.45 4.07L32.45 4.07L32.45 4.07Q32.45 3.64 32.58 3.45L32.58 3.45L32.58 3.45Q32.72 3.26 32.96 3.22L32.96 3.22L32.96 3.22Q33.21 3.18 33.75 3.18L33.75 3.18L33.75 3.18Q33.91 3.18 34.10 3.09L34.10 3.09L34.10 3.09Q34.27 3.01 34.43 3.01L34.43 3.01L34.43 3.01Q35.27 2.87 36.05 2.87L36.05 2.87L36.05 2.87Q37.28 2.87 38.16 3.25L38.16 3.25L38.16 3.25Q39.03 3.63 39.24 4.51L39.24 4.51L39.24 4.51Q39.42 5.24 39.42 5.85L39.42 5.85L39.42 5.85Q39.42 6.47 39.24 6.90L39.24 6.90L39.24 6.90Q39.13 7.18 38.87 7.52L38.87 7.52L38.87 7.52Q38.61 7.85 38.36 8.11L38.36 8.11L38.05 8.41L38.05 8.41Q38.05 8.58 38.21 8.71L38.21 8.71L38.21 8.71Q38.36 8.86 38.36 9.02L38.36 9.02ZM35.38 3.93L35.38 3.93Q35.38 5.31 35.49 7.63L35.49 7.63L35.49 7.63Q35.49 7.78 35.73 7.78L35.73 7.78L35.73 7.78Q36.02 7.78 36.50 7.59L36.50 7.59L36.50 7.59Q36.97 7.39 37.16 7.21L37.16 7.21L37.16 7.21Q37.16 7.04 37.30 6.57L37.30 6.57L37.30 6.57Q37.41 6.22 37.44 6.02L37.44 6.02L37.44 6.02Q37.49 5.73 37.49 5.54L37.49 5.54L37.49 5.54Q37.49 5.40 37.46 5.22L37.46 5.22L37.46 5.22Q37.44 5.04 37.44 4.82L37.44 4.82L37.44 4.82Q37.44 4.56 37.32 4.40L37.32 4.40L37.32 4.40Q37.21 4.24 37.06 4.10L37.06 4.10L37.06 4.10Q36.90 3.96 36.85 3.91L36.85 3.91L35.38 3.93ZM46.80 5.08L46.80 5.08Q46.73 4.98 46.68 4.82L46.68 4.82L46.68 4.82Q46.66 4.72 46.66 4.51L46.66 4.51L46.66 4.51Q46.66 4.28 46.63 4.16L46.63 4.16L46.63 4.16Q46.61 4.03 46.51 3.95L46.51 3.95L46.51 3.95Q46.23 3.79 45.93 3.65L45.93 3.65L45.93 3.65Q45.29 3.65 44.81 3.70L44.81 3.70L44.81 3.70Q44.32 3.75 43.95 3.95L43.95 3.95L43.95 3.95Q43.79 4.09 43.74 4.30L43.74 4.30L43.74 4.30Q43.69 4.52 43.69 4.90L43.69 4.90L43.69 4.90Q43.69 5.56 43.67 6.26L43.67 6.26L43.65 7.07L43.65 7.07Q43.65 7.28 43.72 7.91L43.72 7.91L43.72 7.91Q43.78 8.33 43.78 8.50L43.78 8.50L43.78 8.50Q43.78 8.83 43.65 9.09L43.65 9.09L43.65 9.09Q43.85 9.25 44.29 9.30L44.29 9.30L44.29 9.30Q44.73 9.35 45.36 9.35L45.36 9.35L45.36 9.35Q45.36 9.00 45.41 8.76L45.41 8.76L45.41 8.76Q45.46 8.51 45.65 8.51L45.65 8.51L45.65 8.51Q45.86 8.51 45.93 8.55L45.93 8.55L45.93 8.55Q46.00 8.58 46.23 8.79L46.23 8.79L46.23 8.79Q46.16 8.93 46.16 9.10L46.16 9.10L46.16 9.10Q46.14 9.17 46.14 9.34L46.14 9.34L46.14 9.34Q46.14 9.63 46.19 9.95L46.19 9.95L46.19 9.95Q46.21 10.35 46.21 10.51L46.21 10.51L46.21 10.51Q46.21 10.79 46.15 10.94L46.15 10.94L46.15 10.94Q46.09 11.09 45.93 11.09L45.93 11.09L45.93 11.09Q45.89 11.06 45.75 10.98L45.75 10.98L45.75 10.98Q45.61 10.89 45.49 10.77L45.49 10.77L45.49 10.77Q45.36 10.64 45.36 10.51L45.36 10.51L45.36 10.22L43.95 10.22L43.95 10.22Q43.79 10.67 43.79 11.41L43.79 11.41L43.79 11.41Q43.79 11.89 43.83 12.35L43.83 12.35L43.83 12.35Q43.86 12.91 43.86 13.12L43.86 13.12L43.86 13.12Q43.86 13.17 43.90 14.64L43.90 14.64L43.90 14.64Q43.95 15.26 43.95 15.65L43.95 15.65L43.95 15.65Q44.52 15.85 44.97 15.89L44.97 15.89L44.97 15.89Q45.43 15.93 46.23 15.93L46.23 15.93L46.23 15.93Q46.44 15.83 46.48 15.64L46.48 15.64L46.48 15.64Q46.52 15.51 46.52 15.23L46.52 15.23L46.52 15.23Q46.52 14.94 46.57 14.78L46.57 14.78L46.57 14.78Q46.62 14.62 46.80 14.52L46.80 14.52L46.80 14.52Q47.18 14.52 47.28 14.90L47.28 14.90L47.28 14.90Q47.38 15.29 47.38 15.93L47.38 15.93L47.38 15.93Q47.38 16.13 47.24 16.30L47.24 16.30L47.24 16.30Q47.11 16.48 46.80 16.80L46.80 16.80L45.36 16.80L45.36 16.80Q43.93 16.80 42.93 16.75L42.93 16.75L42.93 16.75Q41.93 16.70 40.80 16.51L40.80 16.51L40.80 15.93L41.94 15.93L41.94 15.93Q42.07 15.19 42.07 14.31L42.07 14.31L42.07 14.31Q42.07 13.82 42.01 12.78L42.01 12.78L42.01 12.78Q41.94 11.87 41.94 11.09L41.94 11.09L41.94 10.51L41.94 7.64L41.94 6.51L41.94 3.95L40.80 3.95L40.80 3.37L40.80 3.37Q41.38 3.22 42.56 3.08L42.56 3.08L42.56 3.08Q43.68 2.94 44.23 2.80L44.23 2.80L47.08 2.80L47.08 2.80Q47.11 2.83 47.18 2.91L47.18 2.91L47.18 2.91Q47.25 2.98 47.31 3.12L47.31 3.12L47.31 3.12Q47.38 3.25 47.38 3.37L47.38 3.37L47.38 3.37Q47.38 3.54 47.45 3.85L47.45 3.85L47.45 3.85Q47.52 4.34 47.52 4.44L47.52 4.44L47.52 4.44Q47.52 4.75 47.36 4.91L47.36 4.91L47.36 4.91Q47.21 5.08 46.80 5.08L46.80 5.08Z"></path></g><defs data-v-423bf9ae=""><linearGradient data-v-423bf9ae="" gradientTransform="rotate(25)" id="6b4b5f5d-1489-4aff-b292-1cc2c5661414" x1="0%" y1="0%" x2="100%" y2="0%"><stop data-v-423bf9ae="" offset="0%" style="stop-color: rgb(255, 0, 0); stop-opacity: 1;"></stop><stop data-v-423bf9ae="" offset="100%" style="stop-color: rgb(52, 0, 255); stop-opacity: 1;"></stop></linearGradient></defs><g data-v-423bf9ae="" id="361a6bd1-4297-41bb-b36a-f70c74afa144" transform="matrix(1.5254237288135593,0,0,1.5254237288135593,0.7288135593220346,0)" stroke="none" fill="url(#6b4b5f5d-1489-4aff-b292-1cc2c5661414)"><path d="M97.901 18l-.003.001C96.896 7.895 88.372 0 78 0a19.88 19.88 0 0 0-10.498 3H32.498A19.88 19.88 0 0 0 22 0C11.628 0 3.104 7.895 2.102 18.001L2.099 18C1.751 22.175 0 50.691 0 51a8 8 0 0 0 8 8c18.377 0 25.943-15.686 28.666-24h26.668C66.057 43.314 73.623 59 92 59a8 8 0 0 0 8-8c0-.309-1.751-28.825-2.099-33zM22 32c-6.629 0-12-5.373-12-12S15.371 8 22 8s12 5.373 12 12-5.371 12-12 12zm56 0c-6.629 0-12-5.373-12-12S71.371 8 78 8s12 5.373 12 12-5.371 12-12 12z"></path><path d="M31 17h-6v-6h-6v6h-6v6h6v6h6v-6h6zM78 16a3.999 3.999 0 1 1-8 0 3.999 3.999 0 1 1 8 0zM86 24a3.999 3.999 0 1 1-8 0 3.999 3.999 0 1 1 8 0z"></path></g><!----><g data-v-423bf9ae="" id="182cb30b-fa1c-402c-a414-8a2e07789e76" fill="#FFFFFF" transform="matrix(1.8317867183064325,0,0,1.8317867183064325,171.5348871749738,56.15324854840163)"><path d="M5.11 2.10C2.32 2.10 0.55 4.21 0.55 6.85C0.55 9.48 2.25 11.59 5.08 11.59C6.76 11.59 7.85 10.74 8.44 9.84L8.44 11.48L9.41 11.48L9.41 6.55L5.05 6.55L5.05 7.50L8.44 7.50C8.44 9.44 6.85 10.57 5.17 10.57C2.91 10.57 1.60 8.93 1.60 6.85C1.60 4.76 2.94 3.12 5.19 3.12C6.61 3.12 7.62 3.74 8.18 4.73L9.32 4.73C8.64 3.18 7.10 2.10 5.11 2.10ZM22.41 2.21L21.10 2.21L17.16 11.48L18.33 11.48L19.46 8.79L24.05 8.79L25.19 11.48L26.35 11.48ZM19.87 7.83L21.76 3.30L23.65 7.83ZM42.32 2.21L39.06 6.61L35.74 2.21L34.52 2.21L34.52 11.48L35.57 11.48L35.57 3.81L39.06 8.22L42.49 3.81L42.49 11.48L43.54 11.48L43.54 2.21ZM53.86 2.21L52.81 2.21L52.81 11.48L53.86 11.48ZM70.07 2.21L70.07 10.01L64.34 2.21L63.13 2.21L63.13 11.48L64.18 11.48L64.18 3.65L69.90 11.48L71.12 11.48L71.12 2.21ZM84.36 2.10C81.58 2.10 79.80 4.21 79.80 6.85C79.80 9.48 81.51 11.59 84.34 11.59C86.02 11.59 87.11 10.74 87.70 9.84L87.70 11.48L88.66 11.48L88.66 6.55L84.31 6.55L84.31 7.50L87.70 7.50C87.70 9.44 86.10 10.57 84.42 10.57C82.17 10.57 80.85 8.93 80.85 6.85C80.85 4.76 82.19 3.12 84.45 3.12C85.86 3.12 86.87 3.74 87.43 4.73L88.58 4.73C87.89 3.18 86.35 2.10 84.36 2.10Z"></path></g></svg>